<svg width="24" height="24" viewBox="0 0 24 24" fill="none" xmlns="http://www.w3.org/2000/svg">
	<path d="M20.9471 8.30502C20.937 7.54764 20.7952 6.79779 20.5281 6.08902C20.2964 5.49117 19.9426 4.94822 19.4892 4.49485C19.0359 4.04148 18.4929 3.68767 17.8951 3.45602C17.1954 3.19338 16.4562 3.05136 15.7091 3.03602C14.7471 2.99302 14.4421 2.98102 12.0001 2.98102C9.55807 2.98102 9.24507 2.98102 8.29007 3.03602C7.54323 3.05147 6.80442 3.19349 6.10507 3.45602C5.50713 3.68751 4.96409 4.04126 4.5107 4.49465C4.05732 4.94804 3.70356 5.49108 3.47207 6.08902C3.2089 6.78815 3.06719 7.52713 3.05307 8.27402C3.01007 9.23702 2.99707 9.54202 2.99707 11.984C2.99707 14.426 2.99707 14.738 3.05307 15.694C3.06807 16.442 3.20907 17.18 3.47207 17.881C3.70395 18.4788 4.05797 19.0216 4.51151 19.4748C4.96505 19.928 5.50813 20.2816 6.10607 20.513C6.8035 20.7862 7.54244 20.9384 8.29107 20.963C9.25407 21.006 9.55907 21.019 12.0011 21.019C14.4431 21.019 14.7561 21.019 15.7111 20.963C16.4582 20.9483 17.1974 20.8066 17.8971 20.544C18.4948 20.3121 19.0376 19.9582 19.4909 19.5049C19.9442 19.0515 20.2982 18.5087 20.5301 17.911C20.7931 17.211 20.9341 16.473 20.9491 15.724C20.9921 14.762 21.0051 14.457 21.0051 12.014C21.0031 9.57202 21.0031 9.26202 20.9471 8.30502V8.30502ZM11.9941 16.602C9.44007 16.602 7.37107 14.533 7.37107 11.979C7.37107 9.42502 9.44007 7.35602 11.9941 7.35602C13.2202 7.35602 14.396 7.84308 15.263 8.71006C16.13 9.57704 16.6171 10.7529 16.6171 11.979C16.6171 13.2051 16.13 14.381 15.263 15.248C14.396 16.115 13.2202 16.602 11.9941 16.602V16.602ZM16.8011 8.26302C16.2041 8.26302 15.7231 7.78102 15.7231 7.18502C15.7231 7.04352 15.7509 6.90341 15.8051 6.77268C15.8592 6.64195 15.9386 6.52317 16.0387 6.42311C16.1387 6.32306 16.2575 6.24369 16.3882 6.18954C16.519 6.13539 16.6591 6.10752 16.8006 6.10752C16.9421 6.10752 17.0822 6.13539 17.2129 6.18954C17.3436 6.24369 17.4624 6.32306 17.5625 6.42311C17.6625 6.52317 17.7419 6.64195 17.7961 6.77268C17.8502 6.90341 17.8781 7.04352 17.8781 7.18502C17.8781 7.78102 17.3961 8.26302 16.8011 8.26302Z" fill="#fff700" />
	<path d="M11.9942 14.982C13.6527 14.982 14.9972 13.6375 14.9972 11.979C14.9972 10.3205 13.6527 8.97601 11.9942 8.97601C10.3357 8.97601 8.99121 10.3205 8.99121 11.979C8.99121 13.6375 10.3357 14.982 11.9942 14.982Z" fill="#fff700" />
</svg>
