<svg width="24" height="24" viewBox="0 0 24 24" fill="none" xmlns="http://www.w3.org/2000/svg">
	<path d="M4.98292 7.19698C6.19132 7.19698 7.17092 6.21738 7.17092 5.00898C7.17092 3.80058 6.19132 2.82098 4.98292 2.82098C3.77452 2.82098 2.79492 3.80058 2.79492 5.00898C2.79492 6.21738 3.77452 7.19698 4.98292 7.19698Z" fill="#fff700" />
	<path d="M9.23692 8.85498V20.994H13.0059V14.991C13.0059 13.407 13.3039 11.873 15.2679 11.873C17.2049 11.873 17.2289 13.684 17.2289 15.091V20.995H20.9999V14.338C20.9999 11.068 20.2959 8.55498 16.4739 8.55498C14.6389 8.55498 13.4089 9.56198 12.9059 10.515H12.8549V8.85498H9.23692ZM3.09492 8.85498H6.86992V20.994H3.09492V8.85498Z" fill="#fff700" />
</svg>
