<svg width="24" height="24" viewBox="0 0 24 24" fill="none" xmlns="http://www.w3.org/2000/svg">
	<path fill-rule="evenodd" clip-rule="evenodd" d="M9.032 20C15.0696 20 18.372 14.6132 18.372 9.94228C18.372 9.78894 18.372 9.63645 18.3624 9.48484C19.0048 8.98518 19.5592 8.36492 20 7.65506C19.4016 7.94107 18.7656 8.12887 18.1152 8.21158C18.8 7.76964 19.3128 7.07529 19.5584 6.25603C18.9136 6.66781 18.2088 6.95813 17.4736 7.11406C16.2304 5.6909 14.1512 5.62198 12.8288 6.96071C11.9768 7.82391 11.6144 9.11096 11.8792 10.3386C9.24 10.1956 6.7808 8.85337 5.1136 6.64541C4.2424 8.26068 4.688 10.3265 6.1304 11.3637C5.608 11.3473 5.0968 11.1957 4.64 10.9218V10.9666C4.6408 12.649 5.7424 14.098 7.2736 14.4314C6.7904 14.5736 6.2832 14.5942 5.792 14.4917C6.2216 15.9321 7.4544 16.9185 8.8584 16.9469C7.696 17.9307 6.26 18.4649 4.7816 18.4631C4.5208 18.4623 4.26 18.4459 4 18.4123C5.5016 19.4495 7.248 20 9.032 19.9974" fill="#fff700" />
</svg>
